<?xml version="1.0" encoding="utf-8"?>
<!-- Generated by IcoMoon.io -->
<!DOCTYPE svg PUBLIC "-//W3C//DTD SVG 1.1//EN" "http://www.w3.org/Graphics/SVG/1.1/DTD/svg11.dtd">
<svg version="1.1" xmlns="http://www.w3.org/2000/svg" xmlns:xlink="http://www.w3.org/1999/xlink" width="48.625px" height="48.625px" viewBox="0 0 878 1023">
<g id="icomoon-ignore">
</g>
<path fill="rgb(255,255,255)" d="M471.732 244.712q82.898 0 152.901 40.852t110.857 110.857 40.852 152.901-40.852 152.901-110.857 110.857-152.901 40.852-152.901-40.852-110.857-110.857-40.852-152.901 40.852-152.901 110.857-110.857 152.901-40.852zM580.408 451.357q-0.796 0.394-3.77 3.77t-5.354 3.77q0.796 0 1.785-1.983t1.983-4.362 1.388-2.778q2.379-2.778 8.724-5.95 5.551-2.379 20.625-4.759 13.487-3.172 20.229 4.362-0.796-0.796 3.77-5.157t5.752-4.759q1.19-0.796 5.95-1.785t5.95-2.974l0.796-8.724q-4.759 0.394-6.942-2.778t-2.577-8.33q0 0.796-2.379 3.172 0-2.778-1.785-3.172t-4.56 0.394-3.569 0.394q-3.968-1.19-5.95-2.974t-3.172-6.546-1.586-5.95q-0.796-1.983-3.77-4.164t-3.77-4.164q-0.394-0.796-0.991-2.182t-1.19-2.577-1.586-2.182-2.182-0.991-2.778 1.983-2.974 3.968-1.785 1.983q-1.19-0.796-2.379-0.595t-1.785 0.394-1.785 1.19-1.983 1.388q-1.19 0.796-3.37 1.19t-3.37 0.796q5.95-1.983-0.394-4.362-3.968-1.586-6.347-1.19 3.569-1.586 2.974-4.759t-3.37-5.551h1.983q-0.394-1.586-3.37-3.37t-6.942-3.37-5.157-2.379q-3.172-1.983-13.487-3.77t-13.088-0.199q-1.983 2.379-1.785 4.164t1.586 5.551 1.388 4.96q0.394 2.379-2.182 5.157t-2.577 4.759q0 2.778 5.551 6.146t3.968 8.526q-1.19 3.172-6.347 6.347t-6.347 4.759q-1.983 3.172-0.595 7.336t4.164 6.546q0.796 0.796 0.595 1.586t-1.388 1.785-2.182 1.586-2.577 1.388l-1.19 0.796q-4.362 1.983-8.132-2.379t-5.354-10.312q-2.778-9.916-6.347-11.898-9.123-3.172-11.502 0.394-1.983-5.157-16.263-10.312-9.916-3.569-23.005-1.586 2.379-0.394 0-5.95-2.778-5.95-7.535-4.759 1.19-2.379 1.586-6.942t0.394-5.354q1.19-5.157 4.759-9.123 0.394-0.394 2.778-3.37t3.77-5.354 0.199-2.379q13.882 1.586 19.83-4.362 1.983-1.983 4.56-6.741t4.164-6.741q3.569-2.379 5.551-2.182t5.752 2.182 5.752 1.983q5.551 0.394 6.146-4.362t-2.974-7.933q4.759 0.394 1.19-6.741-1.983-2.778-3.172-3.569-4.759-1.586-10.709 1.983-3.172 1.586 0.796 3.172-0.394-0.394-3.77 4.164t-6.546 6.942-6.347-1.983q-0.394-0.394-2.182-5.354t-3.77-5.354q-3.172 0-6.347 5.95 1.19-3.172-4.362-5.95t-9.52-3.172q7.535-4.759-3.172-10.709-2.778-1.586-8.132-1.983t-7.735 1.586q-1.983 2.778-2.182 4.56t1.983 3.172 4.164 2.182 4.56 1.586 3.37 1.19q5.551 3.968 3.172 5.551-0.796 0.394-3.37 1.388t-4.56 1.785-2.379 1.586q-1.19 1.586 0 5.551t-0.796 5.551q-1.983-1.983-3.569-6.942t-2.778-6.546q2.778 3.569-9.916 2.379l-3.968-0.394q-1.586 0-6.347 0.796t-8.132 0.394-5.354-3.172q-1.586-3.172 0-7.933 0.394-1.586 1.586-0.796-1.586-1.19-4.362-3.77t-3.968-3.37q-18.247 5.95-37.286 16.263 2.379 0.394 4.759-0.394 1.983-0.796 5.157-2.577t3.968-2.182q13.487-5.551 16.657-2.778l1.983-1.983q5.551 6.347 7.933 9.916-2.778-1.586-11.898-0.394-7.933 2.379-8.724 4.759 2.778 4.759 1.983 7.14-1.586-1.19-4.56-3.968t-5.752-4.362-5.95-1.983q-6.347 0-8.724 0.394-57.911 31.729-93.209 88.053 2.778 2.778 4.759 3.172 1.586 0.394 1.983 3.569t0.991 4.362 4.56-1.19q3.569 3.172 1.19 7.535 0.394-0.394 17.453 10.709 7.535 6.741 8.33 8.33 1.19 4.362-3.968 7.14-0.394-0.796-3.569-3.569t-3.569-1.586q-1.19 1.983 0.199 7.336t4.164 4.96q-2.778 0-3.77 6.347t-0.991 14.082-0.394 9.321l0.796 0.394q-1.19 4.759 2.182 13.683t8.526 7.735q-5.157 1.19 7.933 17.054 2.379 3.172 3.172 3.569 1.19 0.796 4.759 2.974t5.95 3.968 3.968 4.164q1.586 1.983 3.968 8.925t5.551 9.321q-0.796 2.379 3.77 7.933t4.164 9.123q-0.394 0-0.991 0.394t-0.991 0.394q1.19 2.778 6.146 5.551t6.146 5.157q0.394 1.19 0.796 3.968t1.19 4.362 3.172 0.796q0.796-7.933-9.52-24.594-5.95-9.916-6.741-11.502-1.19-1.983-2.182-6.146t-1.785-5.752q0.796 0 2.379 0.595t3.37 1.388 2.974 1.586 0.796 1.19q-1.19 2.778 0.796 6.942t4.759 7.336 6.741 7.535 4.759 5.157q2.379 2.379 5.551 7.735t0 5.354q3.569 0 7.933 3.968t6.741 7.933q1.983 3.172 3.172 10.312t1.983 9.52q0.796 2.778 3.37 5.354t4.96 3.77l6.347 3.172t5.157 2.778q1.983 0.796 7.336 4.164t8.526 4.56q3.968 1.586 6.347 1.586t5.752-0.991 5.354-1.388q5.95-0.796 11.502 5.95t8.33 8.33q14.278 7.535 21.815 4.362-0.796 0.394 0.199 2.974t3.172 6.146 3.569 5.752 2.182 3.37q1.983 2.379 7.14 5.95t7.14 5.95q2.379-1.586 2.778-3.569-1.19 3.172 2.778 7.933t7.14 3.968q5.551-1.19 5.551-12.692-12.296 5.95-19.435-7.14 0-0.394-0.991-2.182t-1.586-3.37-0.991-3.37 0-2.974 1.983-1.19q3.569 0 3.968-1.388t-0.796-4.96-1.586-5.157q-0.394-3.172-4.362-7.933t-4.759-5.95q-1.983 3.569-6.347 3.172t-6.347-3.569q0 0.394-0.595 2.182t-0.595 2.577q-5.157 0-5.95-0.394 0.394-1.19 0.991-6.942t1.388-8.925q0.394-1.586 2.182-4.759t2.974-5.752 1.586-4.96-1.785-3.77-6.942-0.991q-7.535 0.394-10.312 7.933-0.394 1.19-1.19 4.164t-1.983 4.56-3.569 2.778q-2.778 1.19-9.52 0.796t-9.52-1.983q-5.157-3.172-8.925-11.502t-3.77-14.677q0-3.968 0.991-10.511t1.19-9.916-2.182-9.717q1.19-0.796 3.569-3.77t3.968-4.164q0.796-0.394 1.785-0.595t1.785 0 1.586-0.595 1.19-2.379q-0.394-0.394-1.586-1.19-1.19-1.19-1.586-1.19 2.778 1.19 11.304-0.595t10.907 0.595q5.95 4.362 8.724-0.796 0-0.394-0.991-3.77t-0.199-5.354q1.983 10.709 11.502 3.569 1.19 1.19 6.146 1.983t6.942 1.983q1.19 0.796 2.778 2.182t2.182 1.785 1.983-0.199 3.37-2.577q3.968 5.551 4.759 9.52 4.362 15.864 7.535 17.453 2.778 1.19 4.362 0.796t1.785-3.77 0-5.551-0.595-4.96l-0.394-3.172v-7.14l-0.394-3.172q-5.95-1.19-7.336-4.759t0.595-7.336 5.95-7.336q0.394-0.394 3.172-1.388t6.146-2.577 4.96-3.172q8.33-7.535 5.95-13.882 2.778 0 4.362-3.569-0.394 0-1.983-1.19t-2.974-1.983-1.785-0.796q3.569-1.983 0.796-6.347 1.983-1.19 2.974-4.362t2.974-3.968q3.569 4.759 8.33 0.796 2.778-3.172 0.394-6.347 1.983-2.778 8.132-4.164t7.336-3.77q2.778 0.796 3.172-0.796t0.394-4.759 1.19-4.759q1.586-1.983 5.95-3.569t5.157-1.983l6.741-4.362q1.19-1.586 0-1.586 7.14 0.796 12.296-4.362 3.968-4.362-2.379-7.933 1.19-2.379-1.19-3.77t-5.95-2.182q1.19-0.394 4.56-0.199t4.164-0.595q5.95-3.968-2.778-6.347-6.741-1.983-17.054 4.759zM515.759 799.205q81.705-14.278 139.218-74.965-1.19-1.19-4.96-1.785t-4.96-1.388q-7.14-2.778-9.52-3.172 0.394-2.778-0.991-5.157t-3.172-3.569-4.96-3.172-4.362-2.778q-0.796-0.796-2.778-2.379t-2.778-2.182-2.974-1.785-3.37-0.796-3.968 0.394l-1.19 0.394q-1.19 0.394-2.182 0.991t-2.182 1.19-1.586 1.19 0 0.991q-8.33-6.741-14.278-8.724-1.983-0.394-4.362-2.182t-4.164-2.778-3.968-0.595-4.56 2.778q-1.983 1.983-2.379 5.95t-0.796 5.157q-2.778-1.983 0-6.942t0.796-7.336q-1.19-2.379-4.164-1.785t-4.759 1.785-4.56 3.37-3.569 2.577-3.37 2.182-3.37 2.974q-1.19 1.586-2.379 4.759t-1.983 4.362q-0.796-1.586-4.56-2.577t-3.77-2.182q0.796 3.968 1.586 13.882t1.983 15.071q2.778 12.296-4.759 19.039-10.709 9.916-11.502 15.864-1.586 8.724 4.759 10.312 0 2.778-3.172 8.132t-2.778 8.526q0 2.379 0.796 6.347z"></path>
<path fill="rgb(240, 230, 140)" d="M135.001 239.532v0 0c0 0 0 0 0 0s0 0 0 0 0 0 0 0 0 0 0 0 0 0 0 0 0 0 0 0v0 0z"></path>
<path fill="rgb(255,255,255)" d="M485.238 906.594c-8.156 0.662-17.654 1.040-27.24 1.040-197.451 0-357.517-160.067-357.517-357.517s160.067-357.517 357.517-357.517c8.126 0 16.188 0.27 24.181 0.806l197.703-0.058v80.046l198.118-121.050-195.855-118.787v77.399h-283.781c-224.492 22.338-398.364 210.225-398.364 438.721 0 243.429 197.336 440.766 440.766 440.766 14.93 0 29.689-0.743 44.237-2.192z"></path>
</svg>
